<svg width="141" height="22" viewBox="0 0 141 22" fill="none" xmlns="http://www.w3.org/2000/svg">
<path d="M114.412 17.1988C114.412 14.0849 116.558 12.7849 120.156 12.3012L122.272 12.0291C123.451 11.8779 123.905 11.4547 123.905 10.6988C123.905 9.61047 122.967 8.76396 121.486 8.76396C119.793 8.76396 118.674 9.70117 118.523 11.2733H114.714C114.835 9.70117 115.5 8.4314 116.679 7.46396C117.858 6.49651 119.4 6.01279 121.274 6.01279C125.658 6.01279 127.593 8.31047 127.593 12.5733V21.25H124.177V20.6454C124.177 20.2523 124.237 19.7686 124.328 19.2244C123.481 20.7965 121.909 21.7942 119.491 21.7942C116.86 21.7942 114.412 20.0105 114.412 17.1988ZM118.916 15.5663C118.402 15.9291 118.16 16.4128 118.16 17.0477C118.16 18.2872 119.158 19.0733 120.488 19.0733C121.486 19.0733 122.302 18.7407 122.998 18.0756C123.693 17.4105 124.026 16.564 124.026 15.5361V13.9337C123.723 14.2058 123.149 14.4174 122.272 14.5686L121.063 14.8105C120.126 14.9616 119.43 15.2337 118.916 15.5663Z" fill="black"/>
<path d="M105.387 21.25V6.49651H109.075V7.61512C109.075 8.15931 109.045 8.67326 108.954 9.15698C109.952 7.07093 111.373 6.01279 113.277 6.01279C113.549 6.01279 113.822 6.04303 114.063 6.10349V9.67093C113.731 9.58024 113.398 9.55 113.005 9.55C110.587 9.55 109.075 10.8802 109.075 13.9337V21.25H105.387Z" fill="black"/>
<path d="M89.2548 6.49651H92.9734V15.2942C92.9734 17.4407 93.9408 18.8314 95.6641 18.8314C97.5687 18.8314 98.8687 17.4105 98.8687 15.264V6.49651H102.557V21.25H98.899V20.6453C98.899 20.1919 98.9594 19.7384 99.0501 19.2244C98.1432 20.9477 96.6315 21.7942 94.5455 21.7942C93.0036 21.7942 91.7339 21.2802 90.7362 20.2221C89.7385 19.1942 89.2548 17.743 89.2548 15.8686V6.49651Z" fill="black"/>
<path d="M72.2539 13.9337C72.2539 9.15698 75.3981 6.01279 79.8121 6.01279C84.2563 6.01279 87.4004 9.12675 87.4004 13.9337C87.4004 18.7709 84.2563 21.7942 79.8121 21.7942C75.3679 21.7942 72.2539 18.7709 72.2539 13.9337ZM76.0028 13.9337C76.0028 17.0477 77.4842 18.8919 79.8121 18.8919C82.14 18.8919 83.6516 17.0477 83.6516 13.9337C83.6516 10.7895 82.1097 8.94535 79.8121 8.94535C77.5144 8.94535 76.0028 10.7895 76.0028 13.9337Z" fill="black"/>
<path d="M51.0779 21.25V0.0872078H57.0337L66.164 16.0198C66.0733 15.2035 66.043 14.1453 66.043 12.8453V0.0872078H70.0035V21.25H64.8035L54.9174 3.98721C55.0081 4.80349 55.0384 5.77093 55.0384 6.95V21.25H51.0779Z" fill="black"/>
<path d="M134.003 3.91088H135.666L137.082 7.93658C137.154 8.14344 137.201 8.31051 137.225 8.44576C137.233 8.38211 137.297 8.13548 137.369 7.93658L138.729 3.91088H140.376V9.48003H139.373V5.73279C139.373 5.35886 139.381 5.09631 139.389 4.93719L137.862 9.48003H136.589L134.974 4.93719C134.99 5.18383 134.998 5.44637 134.998 5.73279V9.48003H134.003V3.91088Z" fill="black"/>
<path d="M128.806 3.91088H133.563V4.79399H131.71V9.48003H130.667V4.79399H128.806V3.91088Z" fill="black"/>
<rect width="43.75" height="21.25" rx="4" fill="url(#paint0_linear_4_54)"/>
<defs>
<linearGradient id="paint0_linear_4_54" x1="0" y1="10.625" x2="43.75" y2="10.625" gradientUnits="userSpaceOnUse">
<stop stop-color="#FF4D00"/>
<stop offset="0.3125" stop-color="#E7EB4C"/>
<stop offset="0.682292" stop-color="#0B90CB"/>
<stop offset="1" stop-color="#0C59C1"/>
</linearGradient>
</defs>
</svg>
